<svg width="40" height="40" viewBox="0 0 40 40" fill="none" xmlns="http://www.w3.org/2000/svg">
<path d="M2.66667 22.1667H15.6667C16.2413 22.1667 16.7924 21.9384 17.1987 21.5321C17.6051 21.1257 17.8333 20.5746 17.8333 20V2.66667C17.8333 2.09203 17.6051 1.54093 17.1987 1.1346C16.7924 0.728273 16.2413 0.5 15.6667 0.5H2.66667C2.09203 0.5 1.54093 0.728273 1.1346 1.1346C0.728273 1.54093 0.5 2.09203 0.5 2.66667V20C0.5 20.5746 0.728273 21.1257 1.1346 21.5321C1.54093 21.9384 2.09203 22.1667 2.66667 22.1667ZM0.5 37.3333C0.5 37.908 0.728273 38.4591 1.1346 38.8654C1.54093 39.2717 2.09203 39.5 2.66667 39.5H15.6667C16.2413 39.5 16.7924 39.2717 17.1987 38.8654C17.6051 38.4591 17.8333 37.908 17.8333 37.3333V28.6667C17.8333 28.092 17.6051 27.5409 17.1987 27.1346C16.7924 26.7283 16.2413 26.5 15.6667 26.5H2.66667C2.09203 26.5 1.54093 26.7283 1.1346 27.1346C0.728273 27.5409 0.5 28.092 0.5 28.6667V37.3333ZM22.1667 37.3333C22.1667 37.908 22.3949 38.4591 22.8013 38.8654C23.2076 39.2717 23.7587 39.5 24.3333 39.5H37.3333C37.908 39.5 38.4591 39.2717 38.8654 38.8654C39.2717 38.4591 39.5 37.908 39.5 37.3333V22.1667C39.5 21.592 39.2717 21.0409 38.8654 20.6346C38.4591 20.2283 37.908 20 37.3333 20H24.3333C23.7587 20 23.2076 20.2283 22.8013 20.6346C22.3949 21.0409 22.1667 21.592 22.1667 22.1667V37.3333ZM24.3333 15.6667H37.3333C37.908 15.6667 38.4591 15.4384 38.8654 15.0321C39.2717 14.6257 39.5 14.0746 39.5 13.5V2.66667C39.5 2.09203 39.2717 1.54093 38.8654 1.1346C38.4591 0.728273 37.908 0.5 37.3333 0.5H24.3333C23.7587 0.5 23.2076 0.728273 22.8013 1.1346C22.3949 1.54093 22.1667 2.09203 22.1667 2.66667V13.5C22.1667 14.0746 22.3949 14.6257 22.8013 15.0321C23.2076 15.4384 23.7587 15.6667 24.3333 15.6667Z" fill="currentColor" fill-opacity="0.5"/>
</svg>
