<svg width="20" height="20" viewBox="0 0 20 20" fill="none" xmlns="http://www.w3.org/2000/svg">
<path d="M2.095 4.88371H3.69638C3.80572 4.88371 3.90823 4.83488 3.97656 4.74883C4.13602 4.55116 4.30686 4.36046 4.48682 4.17906C5.22283 3.4269 6.09464 2.82748 7.05404 2.41395C8.048 1.98535 9.11632 1.76547 10.1953 1.76744C11.2864 1.76744 12.3434 1.98604 13.3366 2.41395C14.296 2.82748 15.1678 3.4269 15.9038 4.17906C16.6411 4.92868 17.229 5.81718 17.635 6.79534C18.0564 7.80929 18.2683 8.88603 18.2683 9.99998C18.2683 11.1139 18.0541 12.1907 17.635 13.2046C17.2295 14.1837 16.6464 15.0651 15.9038 15.8209C15.1612 16.5767 14.2978 17.1721 13.3366 17.586C12.3434 18.0139 11.2864 18.2325 10.1953 18.2325C9.10417 18.2325 8.04722 18.0162 7.05404 17.586C6.09276 17.1721 5.22942 16.5767 4.48682 15.8209C4.30686 15.6372 4.1383 15.4465 3.97656 15.2511C3.90823 15.1651 3.80344 15.1163 3.69638 15.1163H2.095C1.95149 15.1163 1.86265 15.279 1.94238 15.4023C3.68954 18.1744 6.74652 20.0093 10.2204 20C15.6783 19.986 20.0542 15.4628 19.9995 9.89766C19.9448 4.42092 15.5758 0 10.1953 0C6.73057 0 3.68727 1.83256 1.94238 4.59767C1.86493 4.72092 1.95149 4.88371 2.095 4.88371ZM0.0699215 10.1465L3.3023 12.7511C3.42303 12.8488 3.59843 12.7604 3.59843 12.6046V10.8372H10.7511C10.8513 10.8372 10.9333 10.7535 10.9333 10.6511V9.34882C10.9333 9.2465 10.8513 9.16277 10.7511 9.16277H3.59843V7.39534C3.59843 7.23952 3.42075 7.15115 3.3023 7.24882L0.0699215 9.85347C0.0481396 9.87087 0.0305252 9.89311 0.0184097 9.9185C0.00629616 9.94388 0 9.97175 0 9.99998C0 10.0282 0.00629616 10.0561 0.0184097 10.0815C0.0305252 10.1069 0.0481396 10.1291 0.0699215 10.1465Z" fill="#436981"/>
</svg>
