<svg width="22" height="22" viewBox="0 0 22 22" fill="none" xmlns="http://www.w3.org/2000/svg">
<path d="M9.1666 11.9167C9.56027 12.443 10.0625 12.8785 10.6393 13.1936C11.216 13.5087 11.8538 13.6961 12.5094 13.743C13.1649 13.79 13.8229 13.6954 14.4387 13.4657C15.0545 13.236 15.6136 12.8765 16.0783 12.4117L18.8283 9.66172C19.6632 8.79729 20.1251 7.63953 20.1147 6.43779C20.1043 5.23606 19.6222 4.0865 18.7724 3.23671C17.9227 2.38693 16.7731 1.9049 15.5714 1.89446C14.3696 1.88402 13.2119 2.34599 12.3474 3.18088L10.7708 4.74838M12.8333 10.0834C12.4396 9.5571 11.9374 9.12163 11.3606 8.80652C10.7838 8.49141 10.1461 8.30403 9.49051 8.25708C8.83496 8.21013 8.17698 8.30471 7.5612 8.53442C6.94543 8.76412 6.38625 9.12357 5.92161 9.58838L3.17161 12.3384C2.33671 13.2028 1.87474 14.3606 1.88518 15.5623C1.89563 16.764 2.37765 17.9136 3.22744 18.7634C4.07722 19.6132 5.22678 20.0952 6.42852 20.1056C7.63025 20.1161 8.78801 19.6541 9.65244 18.8192L11.2199 17.2517" stroke="#476B85" stroke-width="2" stroke-linecap="round" stroke-linejoin="round"/>
</svg>