<svg width="386" height="323" viewBox="0 0 386 323" fill="none" xmlns="http://www.w3.org/2000/svg">
<g clip-path="url(#clip0_430_4309)">
<path d="M250.701 319.388L178.557 189.315C178.537 188.997 178.438 188.689 178.27 188.418C178.102 188.146 177.87 187.921 177.594 187.761C177.278 187.58 176.916 187.492 176.552 187.509C176.54 187.508 176.529 187.509 176.517 187.508C176.505 187.509 176.493 187.508 176.482 187.509C175.988 187.486 175.505 187.655 175.133 187.98C174.761 188.305 174.529 188.761 174.485 189.253L98.023 319.388C97.8955 319.609 97.8127 319.852 97.7794 320.105C97.746 320.358 97.7628 320.614 97.8286 320.86C97.8945 321.106 98.0082 321.337 98.1632 321.539C98.3183 321.741 98.5116 321.911 98.7323 322.038C98.9529 322.166 99.1964 322.248 99.449 322.281C99.7015 322.315 99.9582 322.298 100.204 322.232C100.45 322.166 100.681 322.052 100.883 321.897C101.085 321.742 101.254 321.548 101.382 321.328L176.465 193.539L247.343 321.328C247.47 321.548 247.639 321.742 247.841 321.897C248.043 322.052 248.274 322.166 248.52 322.232C248.766 322.298 249.023 322.315 249.275 322.281C249.528 322.248 249.771 322.166 249.992 322.038C250.213 321.911 250.406 321.741 250.561 321.539C250.716 321.337 250.83 321.106 250.896 320.86C250.962 320.614 250.978 320.358 250.945 320.105C250.912 319.852 250.829 319.609 250.701 319.388Z" fill="#616161"/>
<path d="M164.562 297.071L172.717 295.2L169.381 262.857L157.346 265.618L164.562 297.071Z" fill="#FFB6B6"/>
<path d="M170.867 281.447L159.262 284.109L155.552 276.858L155.342 276.6C153.696 274.58 152.782 272.062 152.749 269.456L143.104 243.942L142.315 243.567C141.705 243.277 141.164 242.859 140.728 242.343C140.292 241.827 139.971 241.224 139.786 240.574C139.602 239.924 139.558 239.243 139.658 238.574C139.758 237.906 139.999 237.267 140.366 236.7L139.345 233.999L110.532 234.051L110.503 234.043L75.1206 224.118L78.8358 201.972L88.7887 208.233C92.0684 208.02 148.249 204.57 153.44 217.161C158.061 228.373 164.721 247.528 169.495 261.622C169.733 262.255 170.029 262.865 170.379 263.443C171.121 264.587 171.557 265.902 171.644 267.263C171.701 267.855 171.813 268.441 171.981 269.011C173.965 274.942 170.943 281.29 170.912 281.354L170.867 281.447Z" fill="#2F2E41"/>
<path d="M161.808 294.367L164.459 293.759L173.844 287.175L180.358 290.111L180.358 290.111C183.494 289.392 186.786 289.948 189.512 291.656C192.237 293.364 194.172 296.085 194.892 299.22L194.98 299.605L164.608 306.573L161.808 294.367Z" fill="#476B85"/>
<path d="M41.4068 295.093C42.2359 286.069 47.5219 277.034 56.0001 273.834C52.9167 283.194 53.2434 293.343 56.9225 302.485C58.3542 306.006 60.3131 309.773 59.1894 313.404C58.4903 315.663 56.6593 317.433 54.5856 318.569C52.5118 319.706 50.1885 320.291 47.8942 320.864L47.4515 321.255C43.5179 313.091 40.5777 304.118 41.4068 295.093Z" fill="#F0F0F0"/>
<path d="M56.0904 274.001C51.2781 279.755 48.401 286.879 47.8679 294.361C47.7245 295.969 47.8356 297.59 48.1971 299.164C48.5988 300.686 49.4007 302.073 50.5195 303.18C51.5419 304.234 52.7098 305.193 53.4583 306.476C53.8318 307.139 54.0609 307.873 54.1307 308.631C54.2005 309.388 54.1094 310.152 53.8633 310.871C53.2969 312.681 52.1142 314.179 50.9066 315.604C49.5658 317.186 48.1481 318.807 47.6226 320.864C47.559 321.114 47.1759 321 47.2395 320.751C48.1537 317.173 51.531 315.048 53.0699 311.802C53.788 310.287 54.0539 308.547 53.2853 306.997C52.6132 305.641 51.4098 304.651 50.3653 303.594C49.258 302.529 48.4282 301.21 47.9482 299.752C47.5077 298.201 47.3344 296.587 47.4355 294.978C47.6054 291.353 48.3443 287.776 49.6251 284.38C51.0654 280.497 53.1594 276.888 55.8166 273.71C55.9812 273.513 56.2539 273.806 56.0904 274.001L56.0904 274.001Z" fill="white"/>
<path d="M47.8974 291.941C46.6543 291.681 45.5439 290.988 44.7648 289.985C43.9856 288.982 43.5883 287.735 43.6438 286.466C43.6465 286.414 43.6692 286.366 43.7071 286.33C43.745 286.295 43.7952 286.276 43.8469 286.277C43.8987 286.278 43.9481 286.299 43.9848 286.335C44.0214 286.372 44.0423 286.421 44.0432 286.473C43.9894 287.655 44.3596 288.816 45.0871 289.749C45.8145 290.681 46.8514 291.323 48.0104 291.558C48.2623 291.61 48.1478 291.992 47.8975 291.941H47.8974Z" fill="white"/>
<path d="M49.9306 302.714C52.1158 301.313 53.6923 299.139 54.3459 296.626C54.4104 296.377 54.7934 296.49 54.729 296.739C54.044 299.352 52.3988 301.611 50.1216 303.065C49.9044 303.204 49.7146 302.852 49.9306 302.714H49.9306Z" fill="white"/>
<path d="M51.4481 280.863C51.9081 281.064 52.4108 281.147 52.9111 281.105C53.4113 281.064 53.8934 280.899 54.3141 280.625C54.5293 280.484 54.7189 280.836 54.505 280.976C54.0389 281.276 53.5062 281.458 52.9537 281.505C52.4011 281.552 51.8454 281.463 51.3351 281.246C51.2853 281.23 51.2436 281.195 51.2185 281.149C51.1934 281.103 51.1868 281.049 51.2 280.998C51.2152 280.947 51.2498 280.905 51.2963 280.879C51.3427 280.854 51.3973 280.848 51.4481 280.863H51.4481Z" fill="white"/>
<path d="M82.6447 289.049C82.5128 289.141 82.3809 289.233 82.2489 289.328C80.4817 290.573 78.8186 291.96 77.276 293.474C77.1549 293.589 77.0339 293.708 76.9163 293.826C73.2387 297.515 70.2778 301.853 68.1841 306.623C67.3527 308.521 66.667 310.48 66.1329 312.483C65.3953 315.248 64.8157 318.306 63.2536 320.599C63.0933 320.84 62.9182 321.071 62.7294 321.29L47.9623 321.764C47.9282 321.749 47.894 321.736 47.8597 321.721L47.271 321.766C47.2913 321.661 47.3147 321.553 47.335 321.447C47.3466 321.386 47.3614 321.325 47.3729 321.264C47.3817 321.223 47.3906 321.182 47.3961 321.145C47.399 321.132 47.402 321.118 47.405 321.108C47.4105 321.071 47.4196 321.037 47.4253 321.003C47.5542 320.395 47.6875 319.787 47.8254 319.179C47.8252 319.175 47.8252 319.175 47.8284 319.172C48.8345 314.528 50.3879 310.02 52.456 305.742C52.5195 305.615 52.5826 305.485 52.6528 305.358C53.6133 303.463 54.727 301.649 55.9829 299.935C56.6736 298.999 57.4113 298.099 58.193 297.237C60.2173 295.015 62.5785 293.125 65.1901 291.636C70.3966 288.67 76.494 287.401 82.2092 288.928C82.3554 288.967 82.4984 289.006 82.6447 289.049Z" fill="#F0F0F0"/>
<path d="M82.6176 289.237C75.311 290.934 68.7248 294.89 63.7945 300.543C62.7115 301.741 61.8241 303.102 61.1651 304.576C60.5694 306.033 60.3749 307.623 60.6015 309.181C60.7837 310.638 61.1387 312.107 60.9637 313.582C60.8628 314.336 60.6038 315.06 60.2035 315.707C59.8031 316.354 59.2706 316.909 58.6408 317.335C57.0991 318.439 55.2528 318.923 53.4309 319.334C51.4079 319.789 49.2995 320.231 47.6415 321.557C47.4406 321.717 47.2031 321.396 47.4036 321.236C50.2882 318.929 54.264 319.266 57.4472 317.6C58.9325 316.823 60.1927 315.594 60.5122 313.893C60.7916 312.407 60.4268 310.892 60.2296 309.418C59.9862 307.902 60.1178 306.349 60.6128 304.895C61.1947 303.392 62.0282 301.999 63.0775 300.775C65.3959 297.983 68.139 295.572 71.2062 293.632C74.6946 291.398 78.5393 289.777 82.5742 288.84C82.8239 288.782 82.8657 289.18 82.6176 289.237V289.237Z" fill="white"/>
<path d="M65.2748 298.629C64.4387 297.673 63.9695 296.451 63.9512 295.181C63.9329 293.911 64.3666 292.676 65.1749 291.696C65.3391 291.499 65.654 291.745 65.4895 291.943C64.7352 292.853 64.3313 294.004 64.3508 295.186C64.3702 296.369 64.8118 297.506 65.5957 298.391C65.7658 298.584 65.4439 298.821 65.2748 298.629V298.629Z" fill="white"/>
<path d="M60.4119 308.455C63.0007 308.651 65.5684 307.865 67.6029 306.252C67.8044 306.092 68.042 306.413 67.8408 306.573C65.7204 308.247 63.0467 309.06 60.3532 308.85C60.0965 308.83 60.1566 308.435 60.4119 308.455V308.455Z" fill="white"/>
<path d="M74.7795 291.921C75.0259 292.358 75.3772 292.727 75.8016 292.996C76.226 293.264 76.7103 293.422 77.2111 293.457C77.4679 293.473 77.4076 293.868 77.1524 293.852C76.5993 293.811 76.0646 293.635 75.595 293.34C75.1255 293.045 74.7353 292.639 74.4586 292.159C74.4287 292.116 74.4164 292.063 74.4241 292.011C74.4318 291.959 74.459 291.912 74.5001 291.879C74.5428 291.848 74.596 291.835 74.6483 291.843C74.7007 291.851 74.7478 291.879 74.7795 291.921H74.7795Z" fill="white"/>
<path d="M283.011 295.093C282.182 286.069 276.896 277.034 268.418 273.834C271.501 283.194 271.175 293.343 267.495 302.485C266.064 306.006 264.105 309.773 265.229 313.404C265.928 315.663 267.759 317.433 269.832 318.569C271.906 319.706 274.23 320.291 276.524 320.864L276.966 321.255C280.9 313.091 283.84 304.118 283.011 295.093Z" fill="#F0F0F0"/>
<path d="M268.327 274.001C273.14 279.755 276.017 286.879 276.55 294.361C276.693 295.969 276.582 297.59 276.221 299.164C275.819 300.686 275.017 302.073 273.898 303.18C272.876 304.234 271.708 305.193 270.959 306.476C270.586 307.139 270.357 307.873 270.287 308.631C270.217 309.388 270.308 310.152 270.554 310.871C271.121 312.681 272.303 314.179 273.511 315.604C274.852 317.186 276.27 318.807 276.795 320.864C276.859 321.114 277.242 321 277.178 320.751C276.264 317.173 272.887 315.048 271.348 311.802C270.63 310.287 270.364 308.547 271.132 306.997C271.804 305.641 273.008 304.651 274.052 303.594C275.16 302.529 275.989 301.21 276.469 299.752C276.91 298.201 277.083 296.587 276.982 294.978C276.812 291.353 276.073 287.776 274.793 284.38C273.352 280.497 271.258 276.888 268.601 273.71C268.436 273.513 268.164 273.806 268.327 274.001L268.327 274.001Z" fill="white"/>
<path d="M276.52 291.941C277.763 291.681 278.874 290.988 279.653 289.985C280.432 288.982 280.829 287.735 280.774 286.466C280.771 286.414 280.749 286.366 280.711 286.33C280.673 286.295 280.623 286.276 280.571 286.277C280.519 286.278 280.47 286.299 280.433 286.335C280.396 286.372 280.375 286.421 280.374 286.473C280.428 287.655 280.058 288.816 279.331 289.749C278.603 290.681 277.566 291.323 276.407 291.558C276.155 291.609 276.27 291.992 276.52 291.941Z" fill="white"/>
<path d="M274.487 302.714C272.302 301.313 270.726 299.139 270.072 296.626C270.007 296.377 269.624 296.49 269.689 296.739C270.374 299.352 272.019 301.611 274.296 303.065C274.513 303.204 274.703 302.852 274.487 302.714H274.487Z" fill="white"/>
<path d="M272.97 280.863C272.51 281.064 272.007 281.147 271.507 281.105C271.007 281.064 270.525 280.899 270.104 280.625C269.889 280.484 269.699 280.836 269.913 280.976C270.379 281.276 270.912 281.458 271.465 281.505C272.017 281.552 272.573 281.463 273.083 281.246C273.133 281.23 273.175 281.195 273.2 281.149C273.225 281.103 273.231 281.049 273.218 280.998C273.203 280.947 273.168 280.905 273.122 280.879C273.076 280.854 273.021 280.848 272.97 280.863H272.97Z" fill="white"/>
<path d="M241.773 289.049C241.905 289.141 242.037 289.233 242.169 289.328C243.936 290.573 245.599 291.96 247.142 293.474C247.263 293.589 247.384 293.708 247.501 293.826C251.179 297.515 254.14 301.853 256.234 306.623C257.065 308.521 257.751 310.48 258.285 312.483C259.022 315.248 259.602 318.306 261.164 320.599C261.324 320.84 261.499 321.071 261.688 321.29L276.455 321.764C276.49 321.749 276.524 321.736 276.558 321.721L277.147 321.766C277.126 321.661 277.103 321.553 277.083 321.447C277.071 321.386 277.056 321.325 277.045 321.264C277.036 321.223 277.027 321.183 277.022 321.145C277.019 321.132 277.016 321.118 277.013 321.108C277.007 321.071 276.998 321.037 276.992 321.003C276.864 320.395 276.73 319.787 276.592 319.179C276.592 319.175 276.592 319.175 276.589 319.172C275.583 314.528 274.03 310.02 271.962 305.742C271.898 305.615 271.835 305.485 271.765 305.358C270.804 303.462 269.691 301.649 268.435 299.935C267.744 298.999 267.006 298.099 266.225 297.237C264.2 295.015 261.839 293.125 259.228 291.636C254.021 288.67 247.924 287.401 242.208 288.928C242.062 288.967 241.919 289.006 241.773 289.049Z" fill="#F0F0F0"/>
<path d="M241.801 289.237C249.107 290.934 255.693 294.89 260.624 300.543C261.707 301.741 262.594 303.102 263.253 304.576C263.849 306.033 264.043 307.623 263.817 309.181C263.634 310.638 263.279 312.107 263.455 313.582C263.555 314.336 263.814 315.06 264.215 315.707C264.615 316.354 265.148 316.909 265.777 317.335C267.319 318.439 269.165 318.923 270.987 319.334C273.01 319.789 275.119 320.231 276.777 321.557C276.978 321.717 277.215 321.396 277.015 321.236C274.13 318.929 270.154 319.266 266.971 317.6C265.486 316.823 264.226 315.594 263.906 313.893C263.627 312.407 263.991 310.891 264.189 309.418C264.432 307.902 264.3 306.349 263.805 304.895C263.223 303.392 262.39 301.999 261.341 300.775C259.022 297.983 256.279 295.572 253.212 293.632C249.724 291.398 245.879 289.777 241.844 288.84C241.594 288.782 241.553 289.18 241.801 289.237V289.237Z" fill="white"/>
<path d="M259.143 298.629C259.979 297.673 260.448 296.451 260.467 295.181C260.485 293.911 260.051 292.676 259.243 291.696C259.079 291.499 258.764 291.745 258.928 291.943C259.683 292.853 260.086 294.004 260.067 295.186C260.048 296.369 259.606 297.506 258.822 298.391C258.652 298.584 258.974 298.821 259.143 298.629V298.629Z" fill="white"/>
<path d="M264.006 308.455C261.417 308.651 258.85 307.865 256.815 306.252C256.614 306.092 256.376 306.413 256.577 306.573C258.698 308.247 261.371 309.06 264.065 308.85C264.322 308.83 264.262 308.435 264.006 308.455V308.455Z" fill="white"/>
<path d="M249.638 291.921C249.392 292.358 249.041 292.727 248.616 292.996C248.192 293.264 247.708 293.422 247.207 293.457C246.95 293.473 247.01 293.868 247.265 293.852C247.819 293.811 248.353 293.635 248.823 293.34C249.292 293.045 249.683 292.639 249.959 292.159C249.989 292.116 250.001 292.063 249.994 292.011C249.986 291.959 249.959 291.912 249.918 291.879C249.875 291.848 249.822 291.835 249.77 291.843C249.717 291.851 249.67 291.879 249.638 291.921H249.638Z" fill="white"/>
<path d="M385.119 322.487C385.119 322.623 385.065 322.753 384.969 322.849C384.873 322.946 384.743 323 384.607 323H0.512816C0.376809 323 0.246371 322.946 0.150199 322.85C0.0540278 322.754 0 322.623 0 322.487C0 322.351 0.0540278 322.221 0.150199 322.125C0.246371 322.028 0.376809 321.974 0.512816 321.974H384.607C384.743 321.975 384.873 322.029 384.969 322.125C385.065 322.221 385.119 322.351 385.119 322.487Z" fill="#3F3D56"/>
<path d="M247.406 124.11C248.477 124.11 249.345 123.242 249.345 122.171C249.345 121.1 248.477 120.231 247.406 120.231C246.335 120.231 245.467 121.1 245.467 122.171C245.467 123.242 246.335 124.11 247.406 124.11Z" fill="#3F3D56"/>
<path d="M223.123 137.108L249.267 120.683C249.503 120.534 249.767 120.435 250.043 120.392C250.319 120.348 250.601 120.361 250.872 120.429C251.143 120.497 251.397 120.62 251.619 120.789C251.841 120.958 252.027 121.171 252.165 121.414C252.302 121.657 252.389 121.925 252.42 122.203C252.451 122.48 252.426 122.761 252.345 123.029C252.265 123.296 252.131 123.545 251.952 123.759C251.773 123.973 251.552 124.149 251.303 124.275L223.779 138.266C223.627 138.343 223.45 138.359 223.286 138.31C223.121 138.26 222.983 138.149 222.898 138C222.814 137.851 222.79 137.675 222.832 137.509C222.874 137.343 222.978 137.199 223.123 137.108V137.108Z" fill="#AAAAAA"/>
<path d="M170.674 172.475C170.468 172.168 170.36 171.807 170.365 171.438C170.371 171.069 170.489 170.71 170.703 170.41C171.146 169.818 171.735 169.351 172.413 169.055C173.811 168.343 175.318 167.867 176.872 167.646C178.053 167.478 179.342 167.424 180.258 166.661C181.168 165.902 181.675 164.483 182.854 164.364C183.994 164.25 184.871 165.497 186.014 165.575C187.422 165.67 188.345 164.021 189.716 163.683C190.634 163.457 191.577 163.856 192.438 164.247L197.604 166.59L200.251 167.792C201.176 168.211 202.219 168.776 202.394 169.777C202.634 171.151 201.105 172.121 199.798 172.609C190.463 176.054 180.206 176.055 170.871 172.613" fill="#CBC5A3"/>
<path d="M178.456 197.8C215.941 197.8 246.329 193.459 246.329 188.104C246.329 182.749 215.941 178.408 178.456 178.408C140.971 178.408 110.583 182.749 110.583 188.104C110.583 193.459 140.971 197.8 178.456 197.8Z" fill="#616161"/>
<path d="M316.14 248.219H269.599C267.457 248.219 265.721 249.956 265.721 252.098C265.721 254.24 267.457 255.976 269.599 255.976H316.14C318.282 255.976 320.019 254.24 320.019 252.098C320.019 249.956 318.282 248.219 316.14 248.219Z" fill="#616161"/>
<path d="M338.695 179.071L323.324 252.094L327.327 270.783L334.886 306.056V321.91C334.887 321.931 334.885 321.953 334.882 321.974C334.879 322.325 334.815 322.672 334.692 323H328.616C328.493 322.672 328.429 322.325 328.426 321.974C328.423 321.953 328.421 321.931 328.422 321.91V306.736L321.561 274.722L320.174 268.258L317.489 255.731L316.713 252.102V252.098L317.48 248.461L318.071 245.655L332.369 177.744C332.456 177.328 332.624 176.934 332.863 176.583C333.103 176.232 333.409 175.932 333.764 175.7C334.12 175.467 334.518 175.307 334.935 175.229C335.352 175.15 335.781 175.155 336.197 175.242C336.612 175.329 337.007 175.497 337.357 175.737C337.708 175.977 338.008 176.283 338.24 176.639C338.472 176.994 338.631 177.392 338.71 177.81C338.788 178.227 338.783 178.656 338.695 179.071L338.695 179.071Z" fill="#616161"/>
<path d="M272.831 252.098V321.91C272.832 321.931 272.83 321.953 272.827 321.974C272.824 322.325 272.76 322.672 272.637 323H266.561C266.438 322.672 266.374 322.325 266.371 321.974C266.368 321.953 266.366 321.931 266.367 321.91V252.098C266.367 251.241 266.707 250.419 267.313 249.813C267.92 249.206 268.742 248.866 269.599 248.866C270.456 248.866 271.278 249.206 271.884 249.813C272.49 250.419 272.831 251.241 272.831 252.098Z" fill="#616161"/>
<path d="M277.356 240.463H308.383C311.469 240.463 314.429 241.689 316.611 243.871C318.793 246.053 320.019 249.012 320.019 252.098H265.721C265.721 249.012 266.947 246.053 269.129 243.871C271.311 241.689 274.27 240.463 277.356 240.463Z" fill="#616161"/>
<path d="M323.897 274.722H269.599C268.742 274.722 267.92 274.382 267.314 273.775C266.708 273.169 266.367 272.347 266.367 271.49C266.367 270.633 266.708 269.811 267.314 269.205C267.92 268.599 268.742 268.258 269.599 268.258H323.897C324.754 268.258 325.576 268.599 326.183 269.205C326.789 269.811 327.129 270.633 327.129 271.49C327.129 272.347 326.789 273.169 326.183 273.775C325.576 274.382 324.754 274.722 323.897 274.722Z" fill="#616161"/>
<path d="M71.329 256.094H126.097C128.239 256.094 129.976 254.358 129.976 252.216V251.04C129.976 248.898 128.239 247.162 126.097 247.162H71.329C69.187 247.162 67.4506 248.898 67.4506 251.04V252.216C67.4506 254.358 69.187 256.094 71.329 256.094Z" fill="#616161"/>
<path d="M70.7649 251.68L69.7736 255.765L66.1365 270.727L64.5681 277.191L57.2851 307.176V320.186C57.287 320.823 57.0979 321.446 56.7422 321.974C56.4625 322.402 56.0823 322.754 55.6348 323H52.4715C52.024 322.754 51.6438 322.402 51.3641 321.974C51.0083 321.446 50.8192 320.823 50.821 320.186V306.4L58.9141 273.089L64.1371 251.577L46.4256 167.436C46.3379 167.021 46.333 166.592 46.411 166.175C46.4891 165.758 46.6486 165.36 46.8805 165.005C47.1123 164.649 47.412 164.343 47.7623 164.103C48.1126 163.864 48.5068 163.695 48.9221 163.608C49.3375 163.521 49.766 163.517 50.1831 163.595C50.6003 163.674 50.9978 163.833 51.3531 164.066C51.7083 164.298 52.0143 164.598 52.2536 164.949C52.4928 165.299 52.6606 165.693 52.7474 166.109L69.1188 243.863L69.8729 247.448L70.7518 251.628L70.7649 251.68Z" fill="#616161"/>
<path d="M128.743 251.628V320.186C128.745 320.823 128.556 321.446 128.2 321.974C127.921 322.402 127.54 322.754 127.093 323H123.925C123.48 322.753 123.101 322.401 122.822 321.974C122.466 321.446 122.277 320.823 122.279 320.186V251.628C122.279 250.771 122.62 249.949 123.226 249.343C123.832 248.737 124.654 248.396 125.511 248.396C126.369 248.396 127.191 248.737 127.797 249.343C128.403 249.949 128.743 250.771 128.743 251.628Z" fill="#616161"/>
<path d="M129.976 251.628H67.4505V249.865C67.4505 248.337 67.7515 246.824 68.3362 245.412C68.9209 244.001 69.778 242.718 70.8584 241.638C71.9389 240.557 73.2215 239.7 74.6332 239.115C76.0449 238.531 77.5579 238.23 79.0858 238.23H118.34C121.426 238.23 124.386 239.456 126.568 241.638C128.75 243.82 129.976 246.779 129.976 249.865V251.628H129.976Z" fill="#616161"/>
<path d="M125.51 277.19H62.9845C62.1273 277.19 61.3052 276.85 60.6991 276.244C60.093 275.637 59.7524 274.815 59.7524 273.958C59.7524 273.101 60.093 272.279 60.6991 271.673C61.3052 271.067 62.1273 270.726 62.9845 270.726H125.51C126.367 270.726 127.189 271.067 127.795 271.673C128.401 272.279 128.742 273.101 128.742 273.958C128.742 274.815 128.401 275.637 127.795 276.244C127.189 276.85 126.367 277.19 125.51 277.19Z" fill="#616161"/>
<path d="M205.864 305.384L199.071 302.135L208.402 273.741L218.429 278.536L205.864 305.384Z" fill="#DDB3B9"/>
<path d="M251.9 302.812L244.596 304.614L234.013 276.669L244.794 274.009L251.9 302.812Z" fill="#DDB3B9"/>
<path d="M223.904 181.97C224.873 183.544 226.418 184.676 228.211 185.126C230.003 185.576 231.9 185.307 233.497 184.377C233.818 184.183 234.123 183.962 234.408 183.717L255.884 196.042L254.951 183.39L234.7 173.626C233.598 172.519 232.16 171.81 230.611 171.608C229.062 171.406 227.49 171.724 226.142 172.512C225.365 172.978 224.69 173.595 224.155 174.326C223.621 175.057 223.238 175.888 223.03 176.769C222.821 177.651 222.791 178.565 222.941 179.458C223.091 180.351 223.419 181.206 223.904 181.97Z" fill="#DDB3B9"/>
<path d="M246.651 191.401L250.447 193.715L267.497 204.112C268.617 204.812 269.864 205.285 271.167 205.504C272.469 205.722 273.803 205.682 275.09 205.385C276.377 205.088 277.593 204.54 278.668 203.772C279.744 203.005 280.657 202.033 281.357 200.913C282.619 198.833 283.066 196.359 282.61 193.969L275.033 156.11C274.753 154.624 274.155 153.216 273.281 151.982C272.407 150.748 271.276 149.717 269.967 148.96C268.657 148.203 267.2 147.738 265.694 147.596C264.189 147.454 262.67 147.639 261.243 148.138C258.843 148.981 256.855 150.707 255.682 152.964C254.51 155.222 254.242 157.841 254.932 160.289L262.856 187.156L250.71 181.494L246.651 191.401Z" fill="white"/>
<path d="M237.675 294.981L225.986 271.538L225.988 271.484L227.142 228.487C227.156 228.105 227.187 227.721 227.234 227.343C227.438 225.619 227.983 223.952 228.837 222.441C229.692 220.93 230.838 219.604 232.21 218.54C233.525 217.512 235.03 216.756 236.64 216.316C238.249 215.876 239.93 215.76 241.585 215.977L275.008 220.302L276.167 215.562L276.383 215.484L308.408 203.747L308.593 204.047C312.787 210.872 315.719 224.504 316.518 228.519L316.529 228.577C316.546 228.662 316.556 228.713 316.56 228.728C318.208 235.58 311.396 246.931 304.61 248.637C290.316 252.281 277.532 249.439 262.729 246.147C257.421 244.967 251.935 243.747 245.893 242.692L246.072 246.248C246.22 248.986 246.788 251.684 247.758 254.248C248.836 257.403 249.687 259.895 247.887 265.092L247.017 267.606C247.468 268.854 247.624 270.19 247.471 271.508C247.318 272.827 246.861 274.091 246.136 275.203L245.961 275.47L253.669 294.976L237.675 294.981Z" fill="#2F2E41"/>
<path d="M218.47 284.614L204.531 283.318L209.469 267.525C210.488 257.214 213.056 247.114 217.086 237.568L223.822 221.605C223.837 221.25 223.867 220.893 223.91 220.542C224.114 218.818 224.659 217.152 225.514 215.641C226.368 214.13 227.515 212.804 228.887 211.74C230.201 210.712 231.707 209.956 233.316 209.516C234.926 209.076 236.607 208.961 238.261 209.177L271.635 213.496L273.089 201.295L305.122 197.009L305.269 197.247C310.868 206.357 314.423 213.489 316.456 219.692C316.558 220.008 316.649 220.331 316.726 220.653C318.386 227.551 314.242 234.545 307.489 236.243C290.28 240.631 269.585 240.509 242.376 235.858L229.208 267.196C227.95 270.189 226.391 273.047 224.557 275.726L218.47 284.614Z" fill="#2F2E41"/>
<path d="M267.09 126.411C276.007 126.411 283.236 119.021 283.236 109.905C283.236 100.789 276.007 93.3988 267.09 93.3988C258.173 93.3988 250.944 100.789 250.944 109.905C250.944 119.021 258.173 126.411 267.09 126.411Z" fill="#DDB3B9"/>
<path d="M271.752 214.072L269.435 205.772L268.866 201.678L265.536 201.79L259.001 186.705L256.462 182.728C255.945 182.183 255.476 181.659 255.056 181.155C252.411 178.166 250.29 174.751 248.783 171.055C247.727 168.4 247.107 165.591 246.947 162.738C246.473 154.31 250.026 145.393 257.809 135.479C257.681 135.128 257.596 134.764 257.556 134.392C257.416 133.188 257.758 131.977 258.507 131.024C259.256 130.071 260.351 129.451 261.554 129.301L269.061 128.458C269.644 128.392 270.235 128.443 270.799 128.607C271.363 128.772 271.889 129.047 272.346 129.416C272.823 129.798 273.219 130.272 273.511 130.808C273.803 131.345 273.985 131.935 274.047 132.543C274.148 133.483 273.963 134.432 273.516 135.266C277.342 135.752 280.947 137.331 283.899 139.814C286.85 142.298 289.022 145.58 290.155 149.267C294.646 157.652 298.226 166.494 300.833 175.643C301.347 177.434 301.119 179.281 300.897 181.066C300.693 182.715 300.481 184.421 300.837 186.121C301.198 187.849 302.068 189.584 302.989 191.42C304.044 193.523 305.134 195.697 305.429 197.914L305.45 198.069L271.752 214.072Z" fill="white"/>
<path opacity="0.2" d="M248.983 170.974C250.483 174.648 252.592 178.043 255.221 181.017C255.671 181.555 256.147 182.083 256.645 182.612L259.199 186.619C268.614 179.562 276.242 151.775 276.242 151.775L265.619 149.708L248.983 170.974Z" fill="white"/>
<path d="M242.552 127.953C243.482 129.55 243.752 131.448 243.304 133.242C242.857 135.036 241.727 136.584 240.155 137.558C239.832 137.751 239.494 137.917 239.144 138.054L239.896 162.805L229.178 156.057L230.107 133.588C229.651 132.093 229.703 130.489 230.254 129.026C230.806 127.563 231.826 126.324 233.156 125.502C233.93 125.034 234.791 124.725 235.686 124.595C236.582 124.465 237.495 124.515 238.371 124.744C239.247 124.972 240.068 125.374 240.786 125.925C241.504 126.476 242.105 127.165 242.552 127.953Z" fill="#DDB3B9"/>
<path d="M240.838 153.462L229.051 155.138L229.558 179.547C229.587 181.288 230.062 182.993 230.935 184.499C231.809 186.006 233.054 187.264 234.551 188.154C236.38 189.23 238.509 189.682 240.617 189.443C242.725 189.203 244.699 188.285 246.24 186.827L274.068 160.06C276.026 158.203 277.197 155.666 277.342 152.971C277.487 150.276 276.593 147.628 274.845 145.572C273.98 144.548 272.919 143.708 271.723 143.103C270.527 142.497 269.222 142.138 267.885 142.046C266.548 141.955 265.206 142.133 263.939 142.57C262.672 143.007 261.505 143.694 260.509 144.59C260.234 144.836 259.972 145.097 259.726 145.371L241.351 166.509L240.838 153.462Z" fill="white"/>
<path d="M142.254 312.674L150.62 312.673L154.6 280.403L142.252 280.404L142.254 312.674Z" fill="#FFB6B6"/>
<path d="M94.8324 126.89C104.055 126.89 111.531 119.414 111.531 110.192C111.531 100.97 104.055 93.4935 94.8324 93.4935C85.6103 93.4935 78.1343 100.97 78.1343 110.192C78.1343 119.414 85.6103 126.89 94.8324 126.89Z" fill="#FFB6B6"/>
<path d="M153.351 302.733H141.503L138.483 298.684L137.665 294.87L136.962 294.189C136.007 293.273 135.39 292.061 135.21 290.75C135.03 289.439 135.299 288.106 135.971 286.966L127.385 246.906C125.136 246.708 99.7752 244.441 82.146 241.321C77.6342 240.522 74.1117 238.329 71.6761 234.802C65.6914 226.136 68.2551 212.113 68.2816 211.972L68.3112 211.816L68.4693 211.798L109.647 207.176L109.703 207.203C111.069 207.85 143.23 223.118 148.486 228.374C150.859 230.747 156.154 244.847 157.339 259.838C157.552 262.523 156.787 265.258 156.048 267.903C155.357 270.378 154.642 272.937 154.783 275.356C155.001 279.089 155.208 283.004 155.397 286.994C155.428 287.629 155.907 288.287 156.37 288.923C156.854 289.588 157.311 290.216 157.34 290.873C157.621 297.244 153.457 302.598 153.415 302.651L153.351 302.733Z" fill="#2F2E41"/>
<path d="M156.048 154.667C155.151 154.422 154.211 154.376 153.295 154.533C152.378 154.691 151.507 155.047 150.744 155.577C149.98 156.108 149.341 156.799 148.873 157.603C148.406 158.406 148.12 159.303 148.036 160.229L134.162 164.565L134.74 173.639L154.247 167.24C155.813 167.278 157.337 166.741 158.533 165.729C159.728 164.718 160.511 163.303 160.733 161.754C160.955 160.204 160.6 158.626 159.737 157.32C158.874 156.014 157.561 155.07 156.048 154.667V154.667Z" fill="#FFB6B6"/>
<path d="M146.996 169.683L136.626 173.607L136.361 174.122C135.726 175.355 134.626 176.285 133.304 176.708C131.983 177.13 130.548 177.011 129.314 176.375L106.007 185.196C106.007 185.196 95.5989 174.78 88.1885 165.485L90.7141 149.95C91.299 146.346 92.5423 142.88 94.3818 139.726C109.579 143.058 118.303 164.303 118.303 164.303L145.693 159.077L146.996 169.683Z" fill="#01CD9E"/>
<path d="M92.4597 125.997C88.2793 127.126 83.6706 125.625 80.4082 122.778C77.1459 119.931 75.1051 115.896 73.9293 111.728C73.0681 108.676 72.6598 105.288 74.0187 102.423C75.3777 99.5576 79.0352 97.6244 81.8569 99.0718C80.1162 97.0437 80.9859 93.6894 83.0189 91.9544C85.0519 90.2195 87.8436 89.7221 90.5024 89.4502C94.3611 89.0556 98.3468 89.0114 102.019 90.2615C105.691 91.5116 109.027 94.2446 110.176 97.9493C111.35 98.4958 112.671 98.6376 113.934 98.3524C115.197 98.0673 116.33 97.3714 117.155 96.3736C117.368 97.5195 117.197 98.7036 116.669 99.7426C116.141 100.782 115.285 101.618 114.234 102.121L119.86 100.297C120.827 102.345 119.132 104.88 116.964 105.536C114.796 106.192 112.456 105.475 110.399 104.527C108.341 103.58 106.347 102.382 104.113 102.013C101.878 101.643 99.2531 102.361 98.2194 104.376C97.678 105.432 97.6498 106.668 97.3355 107.812C97.0211 108.956 96.2249 110.142 95.0422 110.236C94.295 110.295 93.5635 109.897 92.8184 109.978C91.8947 110.079 91.1876 110.916 90.9416 111.812C90.7561 112.725 90.7538 113.666 90.9349 114.58L92.364 125.504" fill="#747474"/>
<path d="M71.772 236.798C71.7689 236.798 71.7657 236.797 71.7626 236.797L71.6306 236.774L71.5924 236.646C71.1123 235.031 70.5014 233.378 69.9106 231.78C69.0405 229.566 68.3059 227.301 67.7107 224.998C67.2423 222.796 66.9175 220.567 66.7384 218.323C66.5736 216.694 66.4032 215.009 66.1134 213.351C65.9847 212.614 66.4723 211.917 66.9439 211.243C67.3812 210.618 67.7942 210.027 67.7076 209.468C67.6189 208.897 66.9854 208.27 66.3727 207.663C65.7011 206.998 65.0066 206.31 64.9083 205.586C63.5697 195.709 62.9467 185.748 63.044 175.781C63.1824 161.991 63.8056 152.591 64.8963 147.843C67.8292 135.075 81.3792 132.745 83.5001 132.458C83.726 131.856 84.0733 131.307 84.5204 130.846C84.9675 130.384 85.5049 130.019 86.099 129.774C86.6932 129.529 87.3314 129.409 87.974 129.421C88.6166 129.434 89.2497 129.578 89.8341 129.846L99.4616 134.253C101.414 135.15 103.162 136.439 104.596 138.04C106.029 139.641 107.118 141.52 107.795 143.56L109.225 147.92L109.942 177.189L105.972 197.8L113.728 209.435C72.3871 232.133 71.9052 236.798 71.772 236.798Z" fill="#01CD9E"/>
<path d="M137.752 309.422L140.472 309.422L151.092 305.103L156.784 309.421H156.785C160.001 309.422 163.086 310.699 165.361 312.974C167.635 315.248 168.913 318.333 168.913 321.55V321.944L137.753 321.945L137.752 309.422Z" fill="#476B85"/>
<path d="M159.522 175.554C158.72 175.083 157.825 174.794 156.899 174.706C155.973 174.619 155.039 174.736 154.164 175.048C153.288 175.361 152.491 175.862 151.83 176.516C151.169 177.17 150.659 177.96 150.336 178.833L135.811 179.399L133.854 186.165L154.503 187.222C156.004 187.667 157.617 187.545 159.034 186.881C160.452 186.217 161.577 185.055 162.195 183.617C162.814 182.179 162.884 180.563 162.391 179.077C161.898 177.591 160.878 176.337 159.522 175.554Z" fill="#FFB6B6"/>
<path d="M147.591 187.951L132.671 187.765L130.782 187.74L100.427 187.357C100.427 187.357 92.1833 179.493 85.0054 171.396L86.0114 164.119C86.9928 156.978 90.5354 150.436 95.98 145.712C106.26 152.581 112.222 166.178 112.222 166.178L122.219 170.651C129.253 170.966 136.109 172.973 142.202 176.503L145.489 178.408L147.591 187.951Z" fill="#01CD9E"/>
<path d="M257.23 316.577L252.266 317.802L250.223 313.333L249.11 318.58L235.944 321.83C235.313 321.986 234.648 321.936 234.048 321.687C233.447 321.439 232.941 321.004 232.605 320.448C232.268 319.892 232.118 319.243 232.177 318.595C232.236 317.948 232.5 317.336 232.93 316.85L241.653 306.993L240.483 302.255L251.706 300.185L257.23 316.577Z" fill="#2F2E41"/>
<path d="M204.639 318.108L199.904 316.176L200.884 311.362L196.895 314.948L184.339 309.823C183.737 309.577 183.23 309.145 182.89 308.591C182.551 308.036 182.398 307.388 182.453 306.74C182.509 306.093 182.77 305.479 183.198 304.991C183.627 304.502 184.2 304.163 184.835 304.023L197.689 301.191L199.533 296.672L209.823 301.606L204.639 318.108Z" fill="#2F2E41"/>
<path d="M188.152 186.38H184.274C180.103 186.375 176.105 184.717 173.157 181.768C170.208 178.819 168.549 174.821 168.544 170.651V170.435H203.881V170.651C203.877 174.821 202.218 178.819 199.269 181.768C196.32 184.717 192.322 186.375 188.152 186.38Z" fill="#E4E4E4"/>
<path d="M184.273 164.833C184.273 165.904 182.334 166.772 182.334 166.772C182.334 166.772 180.395 165.904 180.395 164.833C180.395 163.762 182.334 162.894 182.334 162.894C182.334 162.894 184.273 163.762 184.273 164.833Z" fill="#3F3D56"/>
<path d="M195.909 164.833C195.909 165.904 193.969 166.772 193.969 166.772C193.969 166.772 192.03 165.904 192.03 164.833C192.03 163.762 193.969 162.894 193.969 162.894C193.969 162.894 195.909 163.762 195.909 164.833Z" fill="#3F3D56"/>
<path d="M188.152 168.712C188.152 169.783 186.213 170.651 186.213 170.651C186.213 170.651 184.273 169.783 184.273 168.712C184.273 167.641 186.213 166.772 186.213 166.772C186.213 166.772 188.152 167.641 188.152 168.712Z" fill="#3F3D56"/>
<path d="M174.577 160.739C175.648 160.739 176.517 159.871 176.517 158.8C176.517 157.729 175.648 156.861 174.577 156.861C173.506 156.861 172.638 157.729 172.638 158.8C172.638 159.871 173.506 160.739 174.577 160.739Z" fill="#3F3D56"/>
<path d="M146.375 154.633L176.959 158.857C177.236 158.895 177.502 158.989 177.741 159.133C177.981 159.277 178.189 159.467 178.352 159.694C178.516 159.92 178.632 160.178 178.693 160.45C178.754 160.723 178.76 161.005 178.709 161.279C178.658 161.554 178.553 161.816 178.398 162.048C178.243 162.281 178.043 162.48 177.81 162.633C177.576 162.786 177.314 162.89 177.039 162.939C176.764 162.988 176.482 162.981 176.21 162.917L146.133 155.942C145.966 155.903 145.82 155.801 145.726 155.658C145.632 155.514 145.597 155.34 145.628 155.172C145.659 155.003 145.754 154.853 145.893 154.753C146.032 154.652 146.205 154.609 146.375 154.633Z" fill="#AAAAAA"/>
<path d="M183.54 58.2682V0H179.662V58.2682C174.363 58.7517 169.435 61.1984 165.848 65.1281C162.26 69.0578 160.27 74.1866 160.27 79.5078V85.3255H173.844C173.844 87.3827 174.661 89.3557 176.116 90.8104C177.571 92.2651 179.544 93.0823 181.601 93.0823C183.658 93.0823 185.631 92.2651 187.086 90.8104C188.541 89.3557 189.358 87.3827 189.358 85.3255H202.932V79.5078C202.932 74.1866 200.942 69.0578 197.354 65.1281C193.766 61.1985 188.839 58.7517 183.54 58.2682Z" fill="#476B85"/>
<path d="M233.475 43.7011V0H230.566V43.7011C226.592 44.0638 222.896 45.8988 220.205 48.8461C217.515 51.7933 216.022 55.6399 216.022 59.6308V63.9941H226.203C226.203 65.537 226.816 67.0168 227.907 68.1078C228.998 69.1988 230.478 69.8117 232.02 69.8117C233.563 69.8117 235.043 69.1988 236.134 68.1078C237.225 67.0168 237.838 65.537 237.838 63.9941H248.019V59.6308C248.019 55.6399 246.526 51.7933 243.836 48.8461C241.145 45.8988 237.449 44.0638 233.475 43.7011Z" fill="#476B85"/>
<path d="M135.221 43.7011V0H132.313V43.7011C128.338 44.0638 124.643 45.8988 121.952 48.8461C119.261 51.7933 117.769 55.6399 117.769 59.6308V63.9941H127.949C127.949 65.537 128.562 67.0168 129.653 68.1078C130.744 69.1988 132.224 69.8117 133.767 69.8117C135.31 69.8117 136.79 69.1988 137.881 68.1078C138.972 67.0168 139.585 65.537 139.585 63.9941H149.766V59.6308C149.765 55.6399 148.273 51.7933 145.582 48.8461C142.891 45.8988 139.196 44.0638 135.221 43.7011Z" fill="#476B85"/>
<path d="M310.295 102.746C307.551 99.5456 306.246 95.2993 304.052 91.665C301.858 88.0306 298.04 84.7778 294.006 85.6236C291.226 86.2066 289.077 88.6602 287.989 91.3955C286.901 94.1309 286.698 97.1475 286.507 100.103C286.574 94.0296 282.573 88.1422 277.061 86.2043C271.55 84.2665 264.954 86.428 261.491 91.3071C259.98 89.9063 258.007 89.1086 255.947 89.0654C253.886 89.0221 251.882 89.7363 250.313 91.0724C247.215 93.8411 246.53 99.1108 248.808 102.642C251.086 106.174 256.02 107.489 259.641 105.531L260.92 106.708C260.2 109.228 261.597 112.205 263.946 113.153C265.85 113.923 268.539 113.795 269.252 115.793C269.75 117.19 268.819 118.68 267.829 119.753C266.839 120.827 265.663 121.935 265.544 123.42C265.365 125.66 267.68 127.23 269.785 127.703C274.86 128.843 280.492 126.492 283.417 122.013C283.473 121.927 283.534 121.84 283.601 121.754C285.242 119.655 286.438 117.244 287.116 114.667C287.793 112.09 287.939 109.403 287.543 106.768C287.378 105.733 287.544 104.963 288.258 104.718C291.343 103.658 299.986 105.882 302.602 107.892C305.218 109.902 307.312 112.562 309.832 114.702C312.352 116.842 315.562 118.492 318.762 117.91C321.324 117.443 323.504 115.583 324.97 113.339C326.436 111.095 327.28 108.48 328.035 105.881C322.369 109.154 314.615 107.784 310.295 102.746Z" fill="#DE8F62"/>
</g>
<defs>
<clipPath id="clip0_430_4309">
<rect width="385.12" height="323" fill="white"/>
</clipPath>
</defs>
</svg>
