<svg width="182" height="228" viewBox="0 0 182 228" fill="none" xmlns="http://www.w3.org/2000/svg">
<path d="M116.551 206.875C113.08 202.783 111.906 196.888 113.548 191.793C115.189 186.699 119.593 182.573 124.812 181.24C132.163 179.361 140.59 183.491 143.555 190.426C146.52 197.361 143.657 206.245 137.187 210.186C130.718 214.127 121.44 212.638 116.551 206.875Z" fill="#4E4E4E"/>
<path d="M180.707 222.979C181.093 223.656 181.492 224.389 181.416 225.164C181.231 227.04 178.724 227.521 176.825 227.499C166.017 227.376 155.209 227.253 144.402 227.13C143.392 227.119 142.257 227.053 141.586 226.304C140.575 225.174 141.314 223.413 142.085 222.109C147.579 212.813 153.074 203.517 158.569 194.221C159.198 193.157 160.017 191.97 161.256 191.882C162.697 191.78 163.717 193.203 164.429 194.45C169.855 203.96 175.281 213.469 180.707 222.979Z" fill="url(#paint0_linear_430_4220)"/>
<path d="M46.9616 169.065C18.2852 153.323 -0.469926 121.223 0.00896053 88.7041C0.487847 56.1851 20.1802 24.6427 49.3079 9.73879C78.4357 -5.16516 115.749 -2.79109 142.721 15.6822C169.692 34.1555 185.164 67.9353 181.455 100.249C177.745 132.562 155.013 162.022 124.546 174.002C120.248 175.691 115.687 177.135 112.281 180.235C107.159 184.896 105.771 192.246 105.885 199.241C105.901 200.204 104.862 200.85 104.013 200.384C84.9957 189.945 65.9787 179.505 46.9616 169.065ZM32.656 84.6438C30.4777 107.989 44.0825 132.003 65.3134 142.287C86.5443 152.571 113.991 148.441 131.196 132.374C148.401 116.307 154.221 89.3689 145.165 67.7144C136.109 46.0598 112.78 31.1272 89.1671 31.8718C65.5541 32.6163 43.2268 48.9889 35.5757 71.1706C34.0731 75.527 33.0838 80.0589 32.656 84.6438Z" fill="url(#paint1_linear_430_4220)"/>
<defs>
<linearGradient id="paint0_linear_430_4220" x1="24.2672" y1="29.5515" x2="180.557" y2="228.715" gradientUnits="userSpaceOnUse">
<stop stop-color="#0FBB9D"/>
<stop offset="1" stop-color="#2D9193"/>
</linearGradient>
<linearGradient id="paint1_linear_430_4220" x1="24.2672" y1="29.5515" x2="180.557" y2="228.715" gradientUnits="userSpaceOnUse">
<stop stop-color="#0FBB9D"/>
<stop offset="1" stop-color="#2D9193"/>
</linearGradient>
</defs>
</svg>
