<svg width="107" height="130" viewBox="0 0 107 130" fill="none" xmlns="http://www.w3.org/2000/svg">
<mask id="path-1-inside-1_1312_1950" fill="currentColor">
<path d="M0.297363 16.5852C0.297363 8.93259 0.297363 5.10629 2.67473 2.72892C5.05209 0.351562 8.87839 0.351562 16.531 0.351562H90.597C98.2496 0.351562 102.076 0.351562 104.453 2.72892C106.831 5.10629 106.831 8.93259 106.831 16.5852V113.48C106.831 121.132 106.831 124.959 104.453 127.336C102.076 129.713 98.2496 129.713 90.597 129.713H16.531C8.8784 129.713 5.05209 129.713 2.67473 127.336C0.297363 124.959 0.297363 121.132 0.297363 113.48V16.5852Z"/>
</mask>
<path d="M30.7354 33.3262C27.9337 33.3262 25.6624 35.5974 25.6624 38.3992C25.6624 41.2009 27.9337 43.4722 30.7354 43.4722V33.3262ZM76.3926 43.4722C79.1943 43.4722 81.4656 41.2009 81.4656 38.3992C81.4656 35.5974 79.1943 33.3262 76.3926 33.3262V43.4722ZM30.7354 63.7642C27.9337 63.7642 25.6624 66.0355 25.6624 68.8372C25.6624 71.639 27.9337 73.9103 30.7354 73.9103V63.7642ZM76.3926 73.9103C79.1943 73.9103 81.4656 71.639 81.4656 68.8372C81.4656 66.0355 79.1943 63.7642 76.3926 63.7642V73.9103ZM30.7354 94.2023C27.9337 94.2023 25.6624 96.4736 25.6624 99.2753C25.6624 102.077 27.9337 104.348 30.7354 104.348V94.2023ZM61.1735 104.348C63.9753 104.348 66.2465 102.077 66.2465 99.2753C66.2465 96.4736 63.9753 94.2023 61.1735 94.2023V104.348ZM30.7354 43.4722H76.3926V33.3262H30.7354V43.4722ZM30.7354 73.9103H76.3926V63.7642H30.7354V73.9103ZM30.7354 104.348H61.1735V94.2023H30.7354V104.348ZM16.531 10.4976H90.597V-9.79447H16.531V10.4976ZM96.6846 16.5852V113.48H116.977V16.5852H96.6846ZM90.597 119.567H16.531V139.859H90.597V119.567ZM10.4434 113.48V16.5852H-9.84866V113.48H10.4434ZM16.531 119.567C14.5801 119.567 13.0455 119.567 11.7278 119.533C10.405 119.5 9.55258 119.438 8.97659 119.361C7.89134 119.215 8.83839 119.151 9.84905 120.162L-4.4996 134.51C-1.11157 137.898 2.93731 139.023 6.27271 139.472C9.31625 139.881 12.9915 139.859 16.531 139.859V119.567ZM-9.84866 113.48C-9.84866 117.019 -9.87021 120.695 -9.46102 123.738C-9.01259 127.073 -7.88762 131.122 -4.4996 134.51L9.84905 120.162C10.8597 121.172 10.796 122.119 10.6501 121.034C10.5726 120.458 10.5107 119.606 10.4773 118.283C10.4441 116.965 10.4434 115.431 10.4434 113.48H-9.84866ZM96.6846 113.48C96.6846 115.431 96.684 116.965 96.6507 118.283C96.6173 119.606 96.5554 120.458 96.4779 121.034C96.332 122.119 96.2683 121.172 97.279 120.162L111.628 134.51C115.016 131.122 116.141 127.073 116.589 123.738C116.998 120.695 116.977 117.019 116.977 113.48H96.6846ZM90.597 139.859C94.1365 139.859 97.8118 139.881 100.855 139.472C104.191 139.023 108.24 137.898 111.628 134.51L97.279 120.162C98.2896 119.151 99.2367 119.215 98.1514 119.361C97.5754 119.438 96.7231 119.5 95.4002 119.533C94.0825 119.567 92.5479 119.567 90.597 119.567V139.859ZM90.597 10.4976C92.5479 10.4976 94.0825 10.4983 95.4002 10.5315C96.723 10.5649 97.5754 10.6268 98.1514 10.7043C99.2367 10.8502 98.2896 10.9139 97.279 9.90325L111.628 -4.4454C108.24 -7.83343 104.191 -8.95839 100.855 -9.40682C97.8118 -9.81601 94.1365 -9.79447 90.597 -9.79447V10.4976ZM116.977 16.5852C116.977 13.0457 116.998 9.37044 116.589 6.32691C116.141 2.99151 115.016 -1.05738 111.628 -4.4454L97.279 9.90325C96.2683 8.89259 96.332 7.94554 96.4779 9.03078C96.5554 9.60677 96.6173 10.4592 96.6507 11.782C96.684 13.0997 96.6846 14.6343 96.6846 16.5852H116.977ZM16.531 -9.79447C12.9915 -9.79447 9.31624 -9.81601 6.27271 -9.40682C2.93731 -8.95839 -1.11157 -7.83343 -4.4996 -4.4454L9.84905 9.90325C8.83839 10.9139 7.89134 10.8502 8.97658 10.7043C9.55257 10.6268 10.405 10.5649 11.7278 10.5315C13.0455 10.4983 14.5801 10.4976 16.531 10.4976V-9.79447ZM10.4434 16.5852C10.4434 14.6343 10.4441 13.0997 10.4773 11.782C10.5107 10.4592 10.5726 9.60677 10.6501 9.03078C10.796 7.94554 10.8597 8.89259 9.84905 9.90325L-4.4996 -4.4454C-7.88762 -1.05738 -9.01259 2.99151 -9.46102 6.32691C-9.87021 9.37044 -9.84866 13.0457 -9.84866 16.5852H10.4434Z" fill="currentColor" mask="url(#path-1-inside-1_1312_1950)"/>
</svg>