<svg width="40" height="40" viewBox="0 0 40 40" fill="currentColor"  xmlns="http://www.w3.org/2000/svg">
<path d="M2.57391 0.165913L17.3238 15.3023L11.1138 21.6773L2.57172 12.9114C0.925048 11.221 0 8.92877 0 6.53865C0 4.14852 0.925048 1.85624 2.57172 0.165913H2.57391ZM24.6339 18.9551L22.7586 20.8795L38.2858 36.8136L35.1808 40L19.6536 24.0682L4.12641 40L1.02141 36.8136L21.5289 15.7687C20.2377 12.4855 21.5728 7.75776 25.0863 4.14774C29.3749 -0.250974 35.284 -1.32136 38.2858 1.7591C41.2876 4.83955 40.2446 10.9036 35.9582 15.3023C32.4403 18.9123 27.8333 20.2824 24.6339 18.9551Z" fill="currentColor" fill-opacity="0.5"/>
</svg>
