<svg width="12" height="12" viewBox="0 0 12 12" fill="none" xmlns="http://www.w3.org/2000/svg">
<path d="M0 4.08333C0 4.77369 0.559644 5.33333 1.25 5.33333H4.08333C4.77369 5.33333 5.33333 4.77369 5.33333 4.08333V1.25C5.33333 0.559645 4.77369 0 4.08333 0H1.25C0.559645 0 0 0.559644 0 1.25V4.08333ZM1.33333 2.58333C1.33333 1.89298 1.89298 1.33333 2.58333 1.33333H2.75C3.44036 1.33333 4 1.89298 4 2.58333V2.75C4 3.44036 3.44036 4 2.75 4H2.58333C1.89298 4 1.33333 3.44036 1.33333 2.75V2.58333Z" fill="#1AC6A7"/>
<path d="M0 10.75C0 11.4404 0.559644 12 1.25 12H4.08333C4.77369 12 5.33333 11.4404 5.33333 10.75V7.91667C5.33333 7.22631 4.77369 6.66666 4.08333 6.66666H1.25C0.559645 6.66666 0 7.22631 0 7.91666V10.75ZM1.33333 9.25C1.33333 8.55964 1.89298 8 2.58333 8H2.75C3.44036 8 4 8.55964 4 9.25V9.41666C4 10.107 3.44036 10.6667 2.75 10.6667H2.58333C1.89298 10.6667 1.33333 10.107 1.33333 9.41666V9.25Z" fill="#1AC6A7"/>
<path d="M7.91667 0C7.22631 0 6.66667 0.559644 6.66667 1.25V4.08333C6.66667 4.77369 7.22631 5.33333 7.91667 5.33333H10.75C11.4404 5.33333 12 4.77369 12 4.08333V1.25C12 0.559645 11.4404 0 10.75 0H7.91667ZM10.6667 2.75C10.6667 3.44036 10.107 4 9.41667 4H9.25C8.55965 4 8 3.44036 8 2.75V2.58333C8 1.89298 8.55965 1.33333 9.25 1.33333H9.41667C10.107 1.33333 10.6667 1.89298 10.6667 2.58333V2.75Z" fill="#1AC6A7"/>
<path d="M12 10.6667H10.6667V12H12V10.6667Z" fill="#1AC6A7"/>
<path d="M8 6.66666H6.66667V8H8V6.66666Z" fill="#1AC6A7"/>
<path d="M9.33333 8L8 8L8 9.33333H9.33333V8Z" fill="#1AC6A7"/>
<path d="M8 9.33333L6.66667 9.33334V10.6667H8L8 9.33333Z" fill="#1AC6A7"/>
<path d="M9.33333 10.6667L8 10.6667L8 12H9.33333V10.6667Z" fill="#1AC6A7"/>
<path d="M10.6667 9.33334L9.33333 9.33333V10.6667H10.6667L10.6667 9.33334Z" fill="#1AC6A7"/>
<path d="M10.6667 6.66666H9.33333L9.33333 8L10.6667 8V6.66666Z" fill="#1AC6A7"/>
<path d="M12 8L10.6667 8V9.33334L12 9.33333V8Z" fill="#1AC6A7"/>
</svg>