

<svg width="40" height="40" viewBox="0 0 40 40" xmlns="http://www.w3.org/2000/svg">
<path fill="currentColor"  d="M19.8757 39.0104C20.0123 39.5455 19.5523 40 19 40H9C8.44771 40 7.98769 39.5455 8.12435 39.0104C8.30056 38.3203 8.65947 37.6837 9.17157 37.1716C9.68368 36.6595 10.3203 36.3006 11.0104 36.1243C11.5455 35.9877 12 35.5523 12 35V13C12 12.4477 11.5523 12 11 12H1C0.447715 12 0 11.5523 0 11V7C0 6.44772 0.447715 6 1 6H27C27.5523 6 28 6.44772 28 7V11C28 11.5523 27.5523 12 27 12H17C16.4477 12 16 12.4477 16 13V35C16 35.5523 16.4545 35.9877 16.9896 36.1243C17.6797 36.3006 18.3163 36.6595 18.8284 37.1716C19.3405 37.6837 19.6994 38.3203 19.8757 39.0104ZM39 0C39.5523 0 40 0.447715 40 1V39C40 39.5523 39.5523 40 39 40H37C36.4477 40 36 39.5523 36 39V27C36 26.4477 35.5523 26 35 26H27C26.4477 26 26 26.4477 26 27V39C26 39.5523 25.5523 40 25 40H23C22.4477 40 22 39.5523 22 39V24C22 22.9391 22.4214 21.9217 23.1716 21.1716C23.9217 20.4214 24.9391 20 26 20H35C35.5523 20 36 19.5523 36 19V1C36 0.447715 36.4477 0 37 0H39Z" fill="currentColor" fill-opacity="0.5"/>
</svg>




